<?xml version="1.0" standalone="no"?>
<!DOCTYPE svg PUBLIC "-//W3C//DTD SVG 20010904//EN"
 "http://www.w3.org/TR/2001/REC-SVG-20010904/DTD/svg10.dtd">
<svg version="1.0" xmlns="http://www.w3.org/2000/svg"
 width="512.000000pt" height="512.000000pt" viewBox="0 0 512.000000 512.000000"
 preserveAspectRatio="xMidYMid meet">
<metadata>
Created by potrace 1.14, written by Peter Selinger 2001-2017
</metadata>
<g transform="translate(0.000000,512.000000) scale(0.100000,-0.100000)"
fill="#000000" stroke="none">
<path d="M1817 3899 c-19 -17 -40 -62 -73 -154 -25 -71 -61 -164 -81 -205 -37
-80 -142 -246 -202 -320 -20 -24 -41 -51 -48 -60 -43 -55 -277 -349 -291 -365
-9 -11 -29 -36 -43 -55 -15 -19 -35 -45 -45 -57 -11 -12 -28 -34 -39 -49 -11
-15 -93 -118 -181 -230 -89 -111 -167 -218 -174 -238 -26 -81 -7 -167 50 -224
23 -23 185 -112 205 -112 2 0 47 -21 102 -46 54 -26 184 -86 288 -134 105 -48
225 -104 268 -124 42 -20 81 -36 86 -36 6 0 12 -4 15 -8 3 -5 -345 -8 -773 -8
l-778 0 -38 -24 c-93 -57 -79 -202 24 -242 14 -5 1017 -9 2478 -9 2455 0 2455
0 2488 21 88 54 84 188 -7 236 -31 17 -101 18 -1031 17 l-998 0 98 48 c54 26
210 102 346 169 275 134 321 167 369 270 64 136 62 322 -3 452 l-19 36 63 -25
c95 -39 210 -43 305 -10 203 70 293 216 316 509 13 157 -90 330 -238 404 -119
58 -219 65 -365 23 -10 -3 -16 5 -17 23 -8 86 -96 157 -187 153 -119 -6 -200
-137 -153 -248 17 -41 76 -93 114 -102 l30 -6 -24 -54 c-30 -65 -55 -196 -55
-290 0 -61 12 -121 36 -177 6 -15 3 -15 -33 -3 -72 25 -183 0 -267 -59 l-47
-34 -87 56 c-47 30 -97 63 -111 73 -82 58 -572 375 -642 416 -150 88 -425 203
-486 203 -22 0 -22 1 -6 17 35 36 46 82 39 172 -14 208 -26 338 -31 365 -6 32
-38 57 -81 63 -32 4 -45 1 -66 -18z m184 -714 c19 -16 68 -59 109 -95 41 -36
77 -67 80 -70 3 -3 82 -73 175 -155 94 -82 172 -151 175 -154 3 -3 23 -21 45
-40 22 -18 60 -52 85 -75 25 -23 94 -84 154 -136 60 -52 121 -105 135 -118
l26 -23 -23 -17 c-23 -18 -161 -89 -222 -115 -47 -20 -183 -63 -245 -76 -79
-18 -96 -20 -170 -27 -70 -6 -70 -6 -110 31 -22 20 -65 49 -95 64 -65 33 -106
44 -217 56 -32 3 -67 8 -78 10 -18 4 -40 7 -180 21 -27 2 -59 6 -70 9 -11 2
-47 7 -80 10 -33 4 -71 8 -85 9 -61 7 -89 44 -66 88 50 96 130 245 136 253 4
6 31 55 60 110 29 55 64 120 78 145 14 25 49 90 79 145 69 126 92 156 155 203
l51 38 32 -31 c17 -16 47 -43 66 -60z"/>
</g>
</svg>
